<?xml version="1.0" standalone="no"?>
<!DOCTYPE svg PUBLIC "-//W3C//DTD SVG 20010904//EN"
 "http://www.w3.org/TR/2001/REC-SVG-20010904/DTD/svg10.dtd">
<svg version="1.0" xmlns="http://www.w3.org/2000/svg"
 width="820.000000pt" height="820.000000pt" viewBox="0 0 820.000000 820.000000"
 preserveAspectRatio="xMidYMid meet">
<metadata>
Created by potrace 1.14, written by Peter Selinger 2001-2017
</metadata>
<g transform="translate(0.000000,820.000000) scale(0.100000,-0.100000)"
fill="#000000" stroke="none">
<path d="M3166 8184 c-13 -12 -16 -41 -16 -150 l0 -134 -434 0 c-382 0 -436
-2 -450 -16 -13 -12 -16 -41 -16 -150 l0 -134 -134 0 c-109 0 -138 -3 -150
-16 -14 -14 -16 -82 -16 -600 l0 -584 -284 0 c-245 0 -287 -2 -300 -16 -13
-12 -16 -41 -16 -150 l0 -134 -134 0 c-109 0 -138 -3 -150 -16 -14 -14 -16
-85 -16 -634 0 -549 2 -620 16 -634 12 -13 41 -16 150 -16 l134 0 0 -284 c0
-245 2 -287 16 -300 14 -14 82 -16 600 -16 l584 0 0 -284 c0 -245 2 -287 16
-300 13 -14 55 -16 300 -16 l284 0 0 -100 0 -100 -434 0 c-382 0 -436 -2 -450
-16 -13 -12 -16 -41 -16 -150 l0 -134 -134 0 c-109 0 -138 -3 -150 -16 -13
-12 -16 -41 -16 -150 l0 -134 -134 0 c-109 0 -138 -3 -150 -16 -14 -14 -16
-126 -16 -1084 0 -958 2 -1070 16 -1084 12 -13 41 -16 150 -16 l134 0 0 -134
c0 -109 3 -138 16 -150 14 -14 68 -16 450 -16 l434 0 0 -134 c0 -109 3 -138
16 -150 14 -14 140 -16 1234 -16 1094 0 1220 2 1234 16 13 12 16 41 16 150 l0
134 434 0 c382 0 436 2 450 16 13 12 16 41 16 150 l0 134 134 0 c109 0 138 3
150 16 14 14 16 126 16 1084 0 958 -2 1070 -16 1084 -12 13 -41 16 -150 16
l-134 0 0 134 c0 109 -3 138 -16 150 -12 13 -41 16 -150 16 l-134 0 0 134 c0
109 -3 138 -16 150 -14 14 -68 16 -450 16 l-434 0 0 100 0 100 284 0 c245 0
287 2 300 16 14 13 16 55 16 300 l0 284 584 0 c518 0 586 2 600 16 14 13 16
55 16 300 l0 284 134 0 c109 0 138 3 150 16 14 14 16 85 16 634 0 549 -2 620
-16 634 -12 13 -41 16 -150 16 l-134 0 0 134 c0 109 -3 138 -16 150 -13 14
-55 16 -300 16 l-284 0 0 584 c0 518 -2 586 -16 600 -12 13 -41 16 -150 16
l-134 0 0 134 c0 109 -3 138 -16 150 -14 14 -68 16 -450 16 l-434 0 0 134 c0
109 -3 138 -16 150 -14 14 -112 16 -934 16 -822 0 -920 -2 -934 -16z m-1216
-2618 c0 -109 3 -138 16 -150 12 -13 41 -16 150 -16 l134 0 0 -250 0 -250
-100 0 -100 0 0 134 c0 109 -3 138 -16 150 -12 13 -41 16 -150 16 l-134 0 0
250 0 250 100 0 100 0 0 -134z m4500 -116 l0 -250 -134 0 c-109 0 -138 -3
-150 -16 -13 -12 -16 -41 -16 -150 l0 -134 -100 0 -100 0 0 250 0 250 134 0
c109 0 138 3 150 16 13 12 16 41 16 150 l0 134 100 0 100 0 0 -250z"/>
</g>
</svg>
